<svg xmlns="http://www.w3.org/2000/svg" width="16" height="10.937" viewBox="0 0 16 10.937">
  <g id="tag-outline" transform="translate(0 136.237) rotate(-90)">
    <g id="_x35__18_" transform="translate(125.3)">
      <g id="Group_3744" data-name="Group 3744" transform="translate(0)">
        <path id="Path_1388" data-name="Path 1388" d="M135.935,4.956,131.392.277a.9.9,0,0,0-1.3,0L125.55,4.956a.9.9,0,0,0-.243.808H125.3v8.189A2.018,2.018,0,0,0,127.288,16h6.958a2.018,2.018,0,0,0,1.988-2.047V6.276C136.234,5.682,136.294,5.325,135.935,4.956ZM135.3,14a.993.993,0,0,1-1,1h-7a1.04,1.04,0,0,1-1.005-1.048L126.3,6a.906.906,0,0,1,.224-.713l3.895-4.011a.45.45,0,0,1,.649,0l3.895,4.01A.913.913,0,0,1,135.3,6v8Zm-4.529-9.772a2.048,2.048,0,1,0,1.988,2.047A2.018,2.018,0,0,0,130.767,4.229Zm0,3.071a1.024,1.024,0,1,1,.994-1.024A1.009,1.009,0,0,1,130.767,7.3Z" transform="translate(-125.3 0)" fill="#fff"/>
      </g>
    </g>
  </g>
</svg>
