<svg xmlns="http://www.w3.org/2000/svg" width="16" height="16" viewBox="0 0 16 16">
  <g id="gear-outlined-symbol" transform="translate(-0.005)">
    <g id="_x31__13_" transform="translate(0.005)">
      <g id="Group_3644" data-name="Group 3644" transform="translate(0)">
        <path id="Path_1288" data-name="Path 1288" d="M15.476,9.886l-1.238-.721A6.443,6.443,0,0,0,14.353,8a6.4,6.4,0,0,0-.115-1.165l1.238-.721a1.071,1.071,0,0,0,.387-1.457L14.805,2.81a1.053,1.053,0,0,0-1.445-.39l-1.251.729a6.32,6.32,0,0,0-1.988-1.175V1.067A1.062,1.062,0,0,0,9.063,0H6.948A1.062,1.062,0,0,0,5.89,1.067v.905A6.337,6.337,0,0,0,3.9,3.148L2.65,2.419a1.053,1.053,0,0,0-1.445.39L.147,4.657A1.071,1.071,0,0,0,.534,6.114l1.238.721A6.446,6.446,0,0,0,1.657,8a6.4,6.4,0,0,0,.115,1.165L.534,9.886a1.071,1.071,0,0,0-.387,1.457l1.058,1.848a1.053,1.053,0,0,0,1.445.39L3.9,12.853a6.32,6.32,0,0,0,1.988,1.175v.906A1.062,1.062,0,0,0,6.947,16H9.062a1.062,1.062,0,0,0,1.058-1.067v-.905a6.32,6.32,0,0,0,1.988-1.175l1.251.729a1.054,1.054,0,0,0,1.445-.39l1.058-1.847A1.07,1.07,0,0,0,15.476,9.886Zm-.793,1.386-.529.924a.527.527,0,0,1-.723.2l-1.469-.855a5.269,5.269,0,0,1-2.9,1.691V14.4a.531.531,0,0,1-.529.533H7.476a.531.531,0,0,1-.529-.533V13.226a5.269,5.269,0,0,1-2.9-1.691l-1.469.855a.527.527,0,0,1-.723-.2l-.528-.924a.536.536,0,0,1,.194-.729L3,9.684A5.186,5.186,0,0,1,3,6.316L1.521,5.457a.535.535,0,0,1-.193-.728L1.857,3.8a.527.527,0,0,1,.723-.2l1.469.855a5.266,5.266,0,0,1,2.9-1.691V1.6a.531.531,0,0,1,.529-.533H8.534a.531.531,0,0,1,.529.533V2.774a5.273,5.273,0,0,1,2.9,1.691l1.469-.855a.527.527,0,0,1,.723.2l.529.924a.536.536,0,0,1-.194.729l-1.476.859a5.184,5.184,0,0,1,0,3.368l1.476.859A.536.536,0,0,1,14.683,11.272ZM8.005,5.333A2.667,2.667,0,1,0,10.65,8,2.656,2.656,0,0,0,8.005,5.333Zm0,4.267A1.6,1.6,0,1,1,9.592,8,1.593,1.593,0,0,1,8.005,9.6Z" transform="translate(-0.005)" fill="#fff"/>
      </g>
    </g>
  </g>
</svg>
