<svg xmlns="http://www.w3.org/2000/svg" width="10" height="16" viewBox="0 0 10 16">
  <g id="lock-circular-padlock-outline-tool-symbol" transform="translate(-148.5)">
    <g id="_x39__40_" transform="translate(148.5)">
      <g id="Group_3664" data-name="Group 3664" transform="translate(0)">
        <path id="Path_1308" data-name="Path 1308" d="M153.5,10a.5.5,0,0,0-.5.5v2a.5.5,0,1,0,1,0v-2A.5.5,0,0,0,153.5,10Zm4-1.991V4a4,4,0,0,0-8,0V8.009a5,5,0,1,0,8,0ZM150.5,4a3,3,0,0,1,6,0V7.007a4.972,4.972,0,0,0-6,0Zm3,11a4,4,0,0,1,0-8,4.1,4.1,0,0,1,4,4A4,4,0,0,1,153.5,15Z" transform="translate(-148.5)"/>
      </g>
    </g>
  </g>
</svg>
