<svg width="49" height="49" viewBox="0 0 49 49" fill="none" xmlns="http://www.w3.org/2000/svg">
<path d="M19.5555 14.3312C19.516 14.2286 19.4781 14.1286 19.4412 14.0313C19.351 13.7931 19.267 13.5714 19.1804 13.3687C18.5561 13.8322 17.9103 14.3626 17.2634 14.9659L17.2754 15.2066L19.5555 14.3312ZM19.5555 14.3312C19.6984 14.7034 19.8575 15.0781 20.0177 15.4552C20.3291 16.1886 20.6444 16.9309 20.8515 17.6811C20.9431 18.0118 20.9704 18.2931 20.9504 18.5388L20.1028 17.8885L20.1021 17.888L17.3021 15.7396L17.2756 15.2098L19.5555 14.3312ZM22.6626 32.6125C24.4205 33.8466 26.5879 34.9901 28.7509 35.5866C28.7533 35.5873 28.7558 35.5879 28.7582 35.5886C28.7702 35.5919 28.7823 35.5952 28.7943 35.5985C28.8518 35.5658 28.9092 35.5329 28.9666 35.4996C29.6648 35.0948 30.308 34.6744 30.8982 34.2501C30.8985 34.2499 30.8988 34.2497 30.899 34.2495C30.9379 34.2216 30.9766 34.1936 31.015 34.1656L31.2955 31.0583M22.6626 32.6125L31.2964 31.055M22.6626 32.6125L23.4412 31.3761L23.4418 31.3753L24.9554 28.9719M22.6626 32.6125L24.9554 28.9719M31.2955 31.0583L31.2961 31.0585M31.2955 31.0583L31.2956 31.0571M31.2955 31.0583L30.6846 30.8572L30.6814 30.8562L28.6792 30.1973L28.6791 30.1973L28.049 29.9899C27.311 30.1072 26.4487 29.6656 25.7306 29.227L25.1066 29.0217L31.2956 31.0571M31.2961 31.0585L31.0152 34.1655C32.0914 33.3817 32.9882 32.5874 33.7201 31.8561M31.2961 31.0585L31.2962 31.0572M31.2961 31.0585L33.7201 31.8561M33.7201 31.8561L33.9633 31.9362L33.9663 31.9372L36.562 32.7913L33.9666 31.9366L33.9636 31.9357L33.7206 31.8556M33.7201 31.8561C33.7203 31.856 33.7205 31.8558 33.7206 31.8556M33.7206 31.8556C33.721 31.8553 33.7213 31.855 33.7216 31.8547M33.7206 31.8556L31.2962 31.0572M33.7216 31.8547C33.9556 31.6208 34.1728 31.3934 34.3736 31.1749C34.3757 31.1726 34.3778 31.1703 34.3799 31.168C34.8705 30.6336 35.2629 30.1525 35.5642 29.7602L35.2618 29.5281L35.2613 29.5277L32.1973 27.1755C32.1934 27.1739 32.1895 27.1723 32.1856 27.1707C31.9945 27.0928 31.8208 27.041 31.6618 27.0121L31.4944 28.8642L31.4939 28.8694L31.2964 31.055M33.7216 31.8547L31.2964 31.055M33.7216 31.8547L31.2956 31.0571M31.2964 31.055L31.2962 31.0572M31.2962 31.0572L31.2956 31.0571M31.2956 31.0571L30.6851 30.856L30.6819 30.855L28.678 30.195L28.6779 30.195L28.0531 29.9893C28.0556 29.9889 28.0581 29.9885 28.0606 29.9881L28.6756 30.1908M31.2956 31.0571L31.2958 31.0548M24.9554 28.9719L24.9552 28.9719M24.9554 28.9719L24.9568 28.9696M17.9279 28.2743C19.3521 29.9302 20.9504 31.4016 22.5986 32.5675C22.6189 32.5818 22.6392 32.5961 22.6596 32.6104L23.4138 31.4149L23.4143 31.4141L24.9552 28.9719M17.9279 28.2743L17.8453 26.6197M17.9279 28.2743L17.8779 27.2728L17.8779 27.2717L17.846 26.6324M17.9279 28.2743L24.9568 28.9696M24.9552 28.9719L18.4519 26.8318L18.451 26.8316L17.846 26.6324M24.9552 28.9719L24.9567 28.9696M24.9568 28.9696L24.9594 28.9655L24.9567 28.9696M24.9568 28.9696L24.9567 28.9696M24.9567 28.9696L18.4558 26.8288L18.455 26.8285L17.8457 26.6279M17.8457 26.6279L17.8453 26.6197M17.8457 26.6279L17.846 26.6324M17.8457 26.6279L17.8265 26.6216M17.8453 26.6197L17.8261 26.6133M17.8453 26.6197L17.8453 26.6196M17.8261 26.6133L17.8261 26.6133M17.8261 26.6133L17.8265 26.6216M17.8261 26.6133L16.2251 26.0854C16.2278 26.0892 16.2305 26.0931 16.2332 26.0969L17.8265 26.6216M17.8261 26.6133L17.8453 26.6196M17.8261 26.6133L16.2251 26.0854C15.6226 25.2259 15.0723 24.3356 14.588 23.4281C15.4633 23.1126 16.483 22.7744 17.6234 22.4453L17.8261 26.6133ZM17.8453 26.6196L17.6367 22.4414M17.8453 26.6196L17.6367 22.4414M17.6367 22.4414C18.1139 22.3039 18.6122 22.168 19.1298 22.036C19.2549 22.909 20.0603 23.9184 20.6214 24.6215C20.7194 24.7445 20.8101 24.858 20.8883 24.9599C22.061 26.4862 23.4706 27.8027 25.061 28.8043C25.1055 28.8324 25.1513 28.8615 25.1984 28.8916L25.1108 29.0154M17.6367 22.4414L25.1081 29.0195M25.1108 29.0154L25.7048 29.2112C25.7103 29.2146 25.7159 29.218 25.7214 29.2214L25.1081 29.0195M25.1108 29.0154L25.1985 28.8917C25.2203 28.9056 25.2424 28.9197 25.2648 28.934C25.4027 29.0222 25.5503 29.1165 25.7048 29.2112L25.1108 29.0154ZM25.1081 29.0195V29.0195ZM28.0606 29.9881C28.2078 29.9635 28.3499 29.9164 28.4849 29.8425C29.1031 29.5039 29.4608 28.8944 29.7951 28.325C30.2554 27.5409 30.6711 26.8327 31.6608 27.0119L31.4933 28.8668L31.4929 28.872L31.2958 31.0548M28.0606 29.9881L31.2958 31.0548M28.0606 29.9881L28.6756 30.1908M28.0606 29.9881L31.2958 31.0548M17.846 26.6324L17.8267 26.6261M17.8267 26.6261L17.8588 27.2864L17.8589 27.2875L17.9056 28.2483C17.7341 28.0484 17.5652 27.8459 17.399 27.6408C17.3987 27.6406 17.3985 27.6403 17.3983 27.64C16.994 27.1413 16.6061 26.628 16.2376 26.1032L17.8267 26.6261ZM17.8267 26.6261L17.8265 26.6216M36.5678 32.7932L36.5663 32.7927L36.5678 32.7932ZM36.5678 32.7932L36.5673 32.7931L36.5678 32.7932ZM28.6756 30.1908L28.6757 30.1909L30.6829 30.8527L28.6756 30.1908ZM33.9671 31.9357L35.8206 32.5469L33.9671 31.9357ZM33.9671 31.9357L33.9642 31.9347L33.9671 31.9357ZM17.2598 14.9693L17.2714 15.2082L16.8358 15.3754C16.977 15.2365 17.1184 15.1012 17.2598 14.9693ZM32.2176 27.1838C33.0805 27.5382 33.9233 28.0067 34.7543 28.4688C35.0326 28.6235 35.3095 28.7774 35.5855 28.9262C35.7371 29.0077 35.8747 29.0895 35.9991 29.1722C35.8603 29.367 35.7168 29.5613 35.5683 29.7547L35.265 29.522L35.2645 29.5217L32.2176 27.1838ZM20.1006 17.8891L20.9502 18.5414C20.9276 18.8136 20.8468 19.0423 20.7307 19.2464C20.7306 19.2467 20.7304 19.2469 20.7303 19.2472C20.5647 19.5381 20.3275 19.7793 20.0851 20.0257C19.8582 20.2563 19.6268 20.4915 19.4453 20.7765C18.8313 20.9578 18.2106 21.1565 17.5833 21.373L17.5518 20.7415L17.5518 20.7412L17.4461 18.6244L17.4459 18.6213L17.3021 15.7408L20.0999 17.8886L20.1006 17.8891ZM17.5408 20.7467L17.5714 21.3771C17.5629 21.38 17.5543 21.383 17.5457 21.386C17.5439 21.3866 17.5421 21.3872 17.5403 21.3878C16.4498 21.7655 15.3393 22.1972 14.2089 22.6865C14.1594 22.5851 14.1107 22.4835 14.0628 22.3818C13.8208 21.8671 13.6131 21.3309 13.4471 20.7826C13.4461 20.7792 13.4451 20.7758 13.4441 20.7724C13.3667 20.5159 13.2985 20.2568 13.2402 19.996C13.2887 19.9129 13.3376 19.8305 13.3869 19.7487C13.3885 19.7459 13.3902 19.7432 13.3919 19.7404C14.4376 18.0049 15.6273 16.565 16.8293 15.3818L16.8327 15.3805L17.2971 15.737L17.4375 18.6236L17.4376 18.6267L17.5407 20.7464L17.5408 20.7467ZM17.297 15.7358L16.8336 15.3802L17.2715 15.2114L17.297 15.7358Z" fill="#F19E07" stroke="#F19E07" stroke-width="53.3333"/>
<circle cx="24.5" cy="24.5" r="23.5" stroke="#F19E07" stroke-width="2"/>
</svg>
