<svg xmlns="http://www.w3.org/2000/svg" width="10.987" height="10.986" viewBox="0 0 10.987 10.986">
  <g id="Group_3801" data-name="Group 3801" transform="translate(1340.722 -1055.027)">
    <g id="close-circular-button-symbol" transform="translate(-1340.722 1055.027)">
      <g id="_x31_0_41_" transform="translate(0 0)">
        <g id="Group_3594" data-name="Group 3594">
          <path id="Path_1238" data-name="Path 1238" d="M88.994,78.3a.922.922,0,0,0-1.305,0l-3.937,3.937L79.87,78.353a.916.916,0,0,0-1.3,1.3l3.882,3.882-3.908,3.908a.923.923,0,0,0,1.305,1.305l3.908-3.908,3.882,3.882a.916.916,0,0,0,1.3-1.3L85.057,83.54,88.994,79.6A.922.922,0,0,0,88.994,78.3Z" transform="translate(-78.278 -78.027)" fill="#585f69"/>
        </g>
      </g>
    </g>
  </g>
</svg>
