<svg id="planetary-grid-symbol" xmlns="http://www.w3.org/2000/svg" width="16" height="16" viewBox="0 0 16 16">
  <g id="_x33__4_">
    <g id="Group_3700" data-name="Group 3700">
      <path id="Path_1344" data-name="Path 1344" d="M8,0a8,8,0,1,0,8,8A8,8,0,0,0,8,0Zm5.8,4.086A6.94,6.94,0,0,1,14.981,7.5h-4a19.176,19.176,0,0,0-.251-2.7A17.577,17.577,0,0,0,13.8,4.086Zm-.688-.863a16.585,16.585,0,0,1-2.577.588,16.3,16.3,0,0,0-.815-2.589A7.012,7.012,0,0,1,13.109,3.223ZM6.024,7.5a17.417,17.417,0,0,1,.257-2.578C6.843,4.971,7.416,5,8,5s1.157-.029,1.72-.078A17.481,17.481,0,0,1,9.977,7.5Zm3.953,1a17.414,17.414,0,0,1-.258,2.579C9.157,11.029,8.584,11,8,11s-1.157.029-1.72.079A17.492,17.492,0,0,1,6.024,8.5ZM7.515,1.024C7.676,1.014,7.836,1,8,1s.324.014.485.024A14.946,14.946,0,0,1,9.511,3.943c-.5.043-1,.069-1.511.069s-1.014-.026-1.511-.069A14.965,14.965,0,0,1,7.515,1.024Zm-1.232.2A16.248,16.248,0,0,0,5.468,3.81a16.578,16.578,0,0,1-2.577-.588A7.012,7.012,0,0,1,6.283,1.221ZM2.2,4.086a17.53,17.53,0,0,0,3.071.71,19.254,19.254,0,0,0-.251,2.7h-4A6.94,6.94,0,0,1,2.2,4.086Zm0,7.829A6.94,6.94,0,0,1,1.019,8.5h4a19.183,19.183,0,0,0,.251,2.7A17.534,17.534,0,0,0,2.2,11.914Zm.688.862a16.531,16.531,0,0,1,2.577-.587,16.3,16.3,0,0,0,.815,2.59A7.013,7.013,0,0,1,2.891,12.776Zm5.595,2.2C8.324,14.986,8.164,15,8,15s-.324-.014-.485-.025a14.967,14.967,0,0,1-1.026-2.918c.5-.044,1-.07,1.511-.07s1.014.026,1.511.07A14.99,14.99,0,0,1,8.485,14.975Zm1.232-.2a16.245,16.245,0,0,0,.815-2.59,16.618,16.618,0,0,1,2.577.587A7.009,7.009,0,0,1,9.717,14.779ZM13.8,11.914a17.532,17.532,0,0,0-3.07-.711,19.254,19.254,0,0,0,.251-2.7h4A6.94,6.94,0,0,1,13.8,11.914Z" />
    </g>
  </g>
</svg>
