<svg width="14" height="11" viewBox="0 0 14 11" fill="none" xmlns="http://www.w3.org/2000/svg">
<path d="M1.66667 1.69697L5.7384 4.53889L5.7398 4.53994C6.19187 4.84636 6.41807 4.99966 6.66587 5.05887C6.8848 5.11125 7.115 5.11125 7.334 5.05887C7.58193 4.9996 7.8088 4.84587 8.26173 4.53889C8.26173 4.53889 10.8734 2.68649 12.3333 1.69697M1 7.73548V3.05265C1 2.36248 1 2.01714 1.14533 1.75354C1.27315 1.52166 1.47698 1.33327 1.72787 1.21513C2.01308 1.08081 2.38673 1.08081 3.13347 1.08081H10.8668C11.6135 1.08081 11.9864 1.08081 12.2716 1.21513C12.5225 1.33327 12.727 1.52166 12.8548 1.75354C13 2.01688 13 2.3618 13 3.05062V7.73757C13 8.42638 13 8.77082 12.8548 9.03416C12.727 9.26602 12.5225 9.45476 12.2716 9.57287C11.9867 9.70707 11.614 9.70707 10.8687 9.70707H3.13127C2.38599 9.70707 2.0128 9.70707 1.72787 9.57287C1.47698 9.45476 1.27315 9.26602 1.14533 9.03416C1 8.77057 1 8.42564 1 7.73548Z" stroke="white" stroke-linecap="round" stroke-linejoin="round"/>
</svg>
