<svg width="16" height="18" viewBox="0 0 16 18" fill="none" xmlns="http://www.w3.org/2000/svg">
<path d="M15.0294 12.74L14.0294 11.08C13.8194 10.71 13.6294 10.01 13.6294 9.6V7.07C13.6294 4.72 12.2494 2.69 10.2594 1.74C9.73936 0.82 8.77936 0.25 7.67936 0.25C6.58936 0.25 5.6094 0.84 5.0894 1.77C3.1394 2.74 1.7894 4.75 1.7894 7.07V9.6C1.7894 10.01 1.5994 10.71 1.3894 11.07L0.379396 12.74C-0.0206042 13.41 -0.110604 14.15 0.139396 14.83C0.379396 15.5 0.949396 16.02 1.6894 16.27C3.6294 16.93 5.6694 17.25 7.70936 17.25C9.74936 17.25 11.7894 16.93 13.7294 16.28C14.4294 16.05 14.9694 15.52 15.2294 14.83C15.4894 14.14 15.4194 13.38 15.0294 12.74Z"/>
</svg>
