<svg width="16" height="16" viewBox="0 0 16 16" fill="none" xmlns="http://www.w3.org/2000/svg">
<g clip-path="url(#clip0_2_5644)">
<path fill-rule="evenodd" clip-rule="evenodd" d="M15.7123 13.8625C15.2184 15.3633 13.2835 16.1118 11.9011 15.987C10.0131 15.8163 7.95872 14.8149 6.39925 13.712C4.10699 12.0907 1.95978 9.58272 0.708582 6.92138C-0.175685 5.04085 -0.374082 2.72875 0.941118 1.01461C1.42752 0.381013 1.95338 0.0426211 2.74378 0.00315449C3.84032 -0.0501788 3.99392 0.577129 4.37045 1.5542C4.65098 2.28486 5.02538 3.0302 5.23445 3.78753C5.62592 5.20086 4.25738 5.25993 4.08458 6.41513C3.97685 7.14367 4.86005 8.12067 5.25898 8.64013C6.04085 9.65773 6.98058 10.5354 8.04085 11.2032C8.64778 11.5861 9.62805 12.2761 10.3235 11.8953C11.3944 11.3087 11.2931 9.50289 12.7907 10.1141C13.5662 10.4298 14.3171 10.8855 15.0574 11.2844C16.2019 11.8999 16.1486 12.5377 15.7123 13.8625C16.0387 12.8727 15.3859 14.8524 15.7123 13.8625Z" fill="white"/>
</g>
<defs>
<clipPath id="clip0_2_5644">
<rect width="16" height="16" fill="white"/>
</clipPath>
</defs>
</svg>
