<svg xmlns="http://www.w3.org/2000/svg" width="16" height="14.063" viewBox="0 0 16 14.063">
  <path id="portfolio" d="M15.534,1.875H11.281V1.406A1.408,1.408,0,0,0,9.875,0H6.125A1.408,1.408,0,0,0,4.719,1.406v.469H.469A.47.47,0,0,0,0,2.344V12.656a1.408,1.408,0,0,0,1.406,1.406H14.594A1.408,1.408,0,0,0,16,12.656V2.352a.455.455,0,0,0-.466-.477ZM5.656,1.406A.469.469,0,0,1,6.125.937h3.75a.469.469,0,0,1,.469.469v.469H5.656Zm9.225,1.406L13.425,7.179a.468.468,0,0,1-.445.321H10.344V7.031a.469.469,0,0,0-.469-.469H6.125a.469.469,0,0,0-.469.469V7.5H3.02a.468.468,0,0,1-.445-.321L1.119,2.812ZM9.406,7.5v.938H6.594V7.5Zm5.656,5.156a.469.469,0,0,1-.469.469H1.406a.469.469,0,0,1-.469-.469V5.232l.748,2.244a1.4,1.4,0,0,0,1.334.962H5.656v.469a.469.469,0,0,0,.469.469h3.75a.469.469,0,0,0,.469-.469V8.438h2.637a1.4,1.4,0,0,0,1.334-.962l.748-2.244Zm0,0" transform="translate(0 0)"/>
</svg>
