<svg xmlns="http://www.w3.org/2000/svg" width="16" height="19.692" viewBox="0 0 16 19.692">
  <g id="recycling-bin" transform="translate(-70.616)">
    <g id="_x34__19_" transform="translate(70.616)">
      <g id="Group_3707" data-name="Group 3707" transform="translate(0)">
        <path id="Path_1351" data-name="Path 1351" d="M81.693,17.231a.616.616,0,0,0,.615-.615V9.231a.615.615,0,1,0-1.231,0v7.385A.616.616,0,0,0,81.693,17.231ZM85.385,2.462H81.693V1.231A1.23,1.23,0,0,0,80.462,0H76.77a1.23,1.23,0,0,0-1.231,1.231V2.462H71.847a1.23,1.23,0,0,0-1.231,1.231V4.923a1.231,1.231,0,0,0,1.231,1.231V17.231a2.462,2.462,0,0,0,2.462,2.462h8.615a2.462,2.462,0,0,0,2.462-2.462V6.154a1.231,1.231,0,0,0,1.231-1.231V3.692A1.23,1.23,0,0,0,85.385,2.462ZM76.77,1.846a.616.616,0,0,1,.615-.615h2.462a.616.616,0,0,1,.615.615v.615H76.77Zm7.385,15.385a1.231,1.231,0,0,1-1.231,1.231H74.308a1.231,1.231,0,0,1-1.231-1.231V6.154H84.154ZM84.77,4.923H72.462a.615.615,0,0,1,0-1.231H84.77a.615.615,0,0,1,0,1.231ZM75.539,17.231a.616.616,0,0,0,.615-.615V9.231a.615.615,0,1,0-1.231,0v7.385A.616.616,0,0,0,75.539,17.231Zm3.077,0a.616.616,0,0,0,.615-.615V9.231a.615.615,0,1,0-1.231,0v7.385A.616.616,0,0,0,78.616,17.231Z" transform="translate(-70.616)" fill="#1A345F"/>
      </g>
    </g>
  </g>
</svg>
