<svg id="clipboard-square-symbol" xmlns="http://www.w3.org/2000/svg" width="14.501" height="16.573" viewBox="0 0 14.501 16.573">
  <g id="_x38__25_" transform="translate(0)">
    <g id="Group_3593" data-name="Group 3593" transform="translate(0)">
      <path id="Path_1237" data-name="Path 1237" d="M54.59,9.84H47.339a.518.518,0,0,0,0,1.036H54.59a.518.518,0,0,0,0-1.036Zm0,2.59H47.339a.518.518,0,1,0,0,1.036H54.59a.518.518,0,1,0,0-1.036ZM56.144,2.072H54.59V1.036h-1.4a2.919,2.919,0,0,0-4.46,0h-1.4V2.072H45.786a2.072,2.072,0,0,0-2.072,2.072V14.5a2.072,2.072,0,0,0,2.072,2.072H56.144A2.072,2.072,0,0,0,58.215,14.5V4.143A2.072,2.072,0,0,0,56.144,2.072Zm-7.769,0h1.151c0-.572.644-1.036,1.439-1.036S52.4,1.5,52.4,2.072h1.151V4.143H48.375Zm8.8,12.43a1.036,1.036,0,0,1-1.036,1.036H45.786A1.036,1.036,0,0,1,44.75,14.5V4.143a1.036,1.036,0,0,1,1.036-1.036h1.554V5.179H54.59V3.107h1.554A1.036,1.036,0,0,1,57.18,4.143ZM54.59,7.251H47.339a.518.518,0,0,0,0,1.036H54.59a.518.518,0,0,0,0-1.036Z" transform="translate(-43.714)" />
    </g>
  </g>
</svg>
