<svg width="25" height="24" viewBox="0 0 25 24" fill="none" xmlns="http://www.w3.org/2000/svg">
<path fill-rule="evenodd" clip-rule="evenodd" d="M16.6328 7.31363C16.6328 10.509 14.6425 13.2514 11.9922 13.2514C9.33979 13.2514 7.35154 10.509 7.35154 7.31263C7.35154 4.11823 9.06342 2.25 11.9922 2.25C14.9209 2.25 16.6328 4.11723 16.6328 7.31363ZM3.84736 20.3943C4.24439 20.8523 5.9542 22.2525 11.9922 22.2525C18.0301 22.2525 19.7389 20.8523 20.137 20.3953C20.1739 20.3513 20.2012 20.3006 20.2171 20.246C20.2331 20.1915 20.2374 20.1344 20.2298 20.0782C20.139 19.1961 19.3202 15.2516 11.9922 15.2516C4.66411 15.2516 3.84529 19.1961 3.75351 20.0782C3.74604 20.1345 3.75052 20.1916 3.76665 20.2462C3.78279 20.3007 3.81026 20.3504 3.84736 20.3943Z"/>
</svg>
