<svg width="42" height="24" viewBox="0 0 42 24" fill="none" xmlns="http://www.w3.org/2000/svg">
<path d="M36.6452 4.79527C36.218 4.33502 35.7018 4.03428 35.1522 3.92104C35.1315 3.91678 35.1108 3.91252 35.0902 3.90826C34.8499 3.85913 34.6754 3.62626 34.6754 3.35407C34.6754 3.10397 34.4934 2.90125 34.269 2.90125C33.9584 2.90125 33.6489 2.9438 33.3476 3.02787L32.076 3.38268C24.181 2.2463 18.9511 3.4155 17.2604 3.89669C16.9114 3.99592 16.57 4.1329 16.2384 4.30519L10.1776 7.45511C9.80447 7.64871 9.41881 7.79725 9.0244 7.89953L6.33296 8.59417C4.33417 9.10982 2.67954 10.9161 1.94809 13.3799L1.81589 15.7792C1.73013 17.345 2.68718 18.6765 3.89935 18.6765H5.11369C5.60369 20.4627 7.09445 21.7612 8.85779 21.7612C10.6206 21.7612 12.1113 20.4627 12.6013 18.6765H29.6317C30.1217 20.4627 31.6124 21.7612 33.3752 21.7612C35.138 21.7612 36.6288 20.4627 37.1193 18.6765H37.676C38.7439 18.6765 39.6404 17.6329 39.7529 16.2571C39.9157 14.2615 39.9834 11.444 39.365 9.44953C38.6817 7.24568 37.439 5.64875 36.6452 4.79527ZM3.68412 15.5765C3.41262 15.5765 3.19248 15.177 3.19248 14.684C3.19248 14.1908 3.41262 13.7909 3.68412 13.7909C3.95561 13.7909 4.17576 14.1908 4.17576 14.684C4.17576 15.177 3.95567 15.5765 3.68412 15.5765ZM4.29921 12.8222C3.98948 12.9172 3.72563 12.5622 3.86384 12.239C4.11949 11.6411 4.57508 10.8668 5.30434 10.5185C6.19967 10.0911 6.93385 10.264 7.2911 10.4047C7.4457 10.4662 7.5473 10.6336 7.53747 10.8162C7.51944 11.1602 7.3867 11.7118 6.76123 11.9796C6.15706 12.239 5.03285 12.597 4.29921 12.8222ZM11.1335 18.6765C10.7129 19.6031 9.8509 20.2393 8.85779 20.2393C7.86413 20.2393 7.00213 19.6031 6.58151 18.6765C6.4067 18.2923 6.30837 17.8576 6.30837 17.398C6.30837 15.8316 7.4517 14.5567 8.85779 14.5567C10.2633 14.5567 11.4067 15.8315 11.4067 17.398C11.4067 17.8576 11.3083 18.2923 11.1335 18.6765ZM15.0252 8.55393C14.9602 8.73048 14.8072 8.84433 14.6357 8.84433H10.7348C10.7414 8.84061 10.7479 8.83763 10.7545 8.83459L15.915 6.15283L15.0252 8.55393ZM22.2478 11.3204H20.7363C20.4801 11.3204 20.272 11.0884 20.272 10.8029C20.272 10.6598 20.3239 10.5308 20.408 10.437C20.4921 10.3432 20.6079 10.2854 20.7363 10.2854H22.2478C22.504 10.2854 22.7122 10.5168 22.7122 10.8029C22.7122 11.0884 22.504 11.3204 22.2478 11.3204ZM23.07 8.70065L18.5568 8.81206C18.4142 8.81693 18.2853 8.74266 18.2028 8.61298C18.1209 8.48264 18.1028 8.32313 18.1536 8.17465L19.2473 4.98577C20.3431 4.77391 21.8551 4.5565 23.7359 4.46646L23.07 8.70065ZM27.9318 8.58133L24.0167 8.67751L24.6837 4.43359C24.9705 4.42689 25.2633 4.42324 25.5643 4.42324C26.5082 4.42324 27.4674 4.45672 28.4387 4.52308C28.2606 6.03168 28.0645 7.61029 27.9318 8.58133ZM29.3667 4.59674C30.178 4.66919 30.9968 4.76416 31.8222 4.88172L33.5309 6.96685C33.6216 7.07759 33.6593 7.22559 33.6336 7.37292C33.6079 7.51964 33.5244 7.6414 33.4031 7.70709L32.0467 8.43704C31.9921 8.46687 31.9337 8.4827 31.873 8.48398L28.874 8.55764C29.0177 7.50503 29.2029 5.9848 29.3667 4.59674ZM29.659 11.3204C29.4023 11.3204 29.1947 11.0884 29.1947 10.8029C29.1947 10.6598 29.2466 10.5308 29.3307 10.437C29.4148 10.3432 29.5306 10.2854 29.659 10.2854H31.17C31.4267 10.2854 31.6343 10.5168 31.6343 10.8029C31.6343 11.0884 31.4267 11.3204 31.17 11.3204H29.659ZM35.6516 18.6765C35.231 19.6031 34.3689 20.2393 33.3753 20.2393C32.3822 20.2393 31.5202 19.6031 31.0996 18.6765C30.9248 18.2923 30.8264 17.8576 30.8264 17.398C30.8264 15.8316 31.9698 14.5567 33.3753 14.5567C34.7814 14.5567 35.9247 15.8315 35.9247 17.398C35.9247 17.8576 35.8263 18.2923 35.6516 18.6765ZM38.4769 13.8949C38.343 14.0008 38.1617 13.9935 38.0333 13.8797C37.7367 13.6161 37.2161 13.0146 37.0675 11.9419C36.9462 11.067 37.2942 10.2269 37.6143 9.66864C37.7869 9.36668 38.1966 9.42755 38.2884 9.77092C38.5058 10.5843 38.8281 11.836 38.951 12.5446C39.0783 13.2783 38.7286 13.6958 38.4769 13.8949Z" fill="black"/>
<path d="M12.091 15.6001C11.4484 15.6001 10.9277 16.1804 10.9277 16.8961C10.9277 17.3031 11.0961 17.6665 11.3602 17.9041C11.5596 18.0846 11.8141 18.1921 12.091 18.1921C12.368 18.1921 12.6221 18.0846 12.8215 17.9041C13.0855 17.6665 13.2539 17.3031 13.2539 16.8961C13.2539 16.1804 12.7332 15.6001 12.091 15.6001Z" fill="black"/>
<path d="M31.4207 15.6001C30.7785 15.6001 30.2578 16.1804 30.2578 16.8961C30.2578 17.3031 30.4262 17.6665 30.6902 17.9041C30.8896 18.0846 31.1438 18.1921 31.4207 18.1921C31.6976 18.1921 31.9522 18.0846 32.1516 17.9041C32.4152 17.6665 32.5836 17.3031 32.5836 16.8961C32.5836 16.1804 32.0633 15.6001 31.4207 15.6001Z" fill="black"/>
</svg>
