<svg width="25" height="24" viewBox="0 0 25 24" fill="none" xmlns="http://www.w3.org/2000/svg">
<path fill-rule="evenodd" clip-rule="evenodd" d="M12.25 16.1543C11.836 16.1543 11.5 15.8183 11.5 15.4043V8.07727C11.5 7.66327 11.836 7.32727 12.25 7.32727C12.664 7.32727 13 7.66327 13 8.07727V15.4043C13 15.8183 12.664 16.1543 12.25 16.1543Z" fill="white"/>
<path fill-rule="evenodd" clip-rule="evenodd" d="M15.917 12.4902H8.58398C8.16898 12.4902 7.83398 12.1542 7.83398 11.7402C7.83398 11.3262 8.16898 10.9902 8.58398 10.9902H15.917C16.331 10.9902 16.667 11.3262 16.667 11.7402C16.667 12.1542 16.331 12.4902 15.917 12.4902Z" fill="white"/>
<path fill-rule="evenodd" clip-rule="evenodd" d="M7.564 2.5C4.792 2.5 3 4.397 3 7.335V16.165C3 19.103 4.792 21 7.564 21H16.936C19.709 21 21.5 19.103 21.5 16.165V7.335C21.5 4.397 19.709 2.5 16.936 2.5H7.564ZM16.936 22.5H7.564C3.937 22.5 1.5 19.954 1.5 16.165V7.335C1.5 3.546 3.937 1 7.564 1H16.936C20.563 1 23 3.546 23 7.335V16.165C23 19.954 20.563 22.5 16.936 22.5Z" fill="white"/>
</svg>
