<svg width="16" height="29" viewBox="0 0 16 29" fill="none" xmlns="http://www.w3.org/2000/svg">
<path d="M13.6 0H2.4C1.075 0 0 1.20891 0 2.69897V26.09C0 27.5801 1.075 28.789 2.4 28.789H13.6C14.925 28.789 16 27.5801 16 26.09V2.69897C16 1.20891 14.925 0 13.6 0ZM8 26.9897C7.115 26.9897 6.4 26.1856 6.4 25.1903C6.4 24.1951 7.115 23.391 8 23.391C8.885 23.391 9.6 24.1951 9.6 25.1903C9.6 26.1856 8.885 26.9897 8 26.9897ZM13.6 20.917C13.6 21.2881 13.33 21.5917 13 21.5917H3C2.67 21.5917 2.4 21.2881 2.4 20.917V3.37371C2.4 3.0026 2.67 2.69897 3 2.69897H13C13.33 2.69897 13.6 3.0026 13.6 3.37371V20.917Z" fill="#7D7D7D"/>
</svg>
