<svg width="24" height="17" viewBox="0 0 24 17" fill="none" xmlns="http://www.w3.org/2000/svg">
<path d="M23.0492 5.30863C23.2248 5.17884 23.486 5.30026 23.486 5.5054V14.067C23.486 15.1765 22.5179 16.0766 21.3247 16.0766H2.59387C1.40068 16.0766 0.432617 15.1765 0.432617 14.067V5.50959C0.432617 5.30026 0.689266 5.18303 0.869371 5.31282C1.87796 6.04129 3.21523 6.96653 7.8079 10.0688C8.75795 10.7135 10.3609 12.07 11.9593 12.0616C13.5667 12.0742 15.2012 10.6884 16.1152 10.0688C20.7079 6.96653 22.0407 6.0371 23.0492 5.30863ZM11.9593 10.7177C13.0039 10.7345 14.5078 9.49524 15.2642 8.98448C21.2392 4.95277 21.694 4.60109 23.0718 3.5963C23.3329 3.4079 23.486 3.11484 23.486 2.80503V2.00958C23.486 0.900122 22.5179 0 21.3247 0H2.59387C1.40068 0 0.432617 0.900122 0.432617 2.00958V2.80503C0.432617 3.11484 0.585706 3.40372 0.846858 3.5963C2.22466 4.5969 2.67942 4.95277 8.65439 8.98448C9.41083 9.49524 10.9147 10.7345 11.9593 10.7177Z" fill="#7D7D7D"/>
</svg>
