<svg width="21" height="21" viewBox="0 0 21 21" fill="none" xmlns="http://www.w3.org/2000/svg">
<path d="M19.2279 19.5703V17.5073C19.2279 16.4128 18.7603 15.3631 17.9279 14.5892C17.0956 13.8153 15.9667 13.3805 14.7896 13.3805H5.91293C4.73581 13.3805 3.60691 13.8153 2.77456 14.5892C1.94222 15.3631 1.47461 16.4128 1.47461 17.5073V19.5703" fill="#7D7D7D"/>
<path d="M19.2279 19.5703V17.5073C19.2279 16.4128 18.7603 15.3631 17.9279 14.5892C17.0956 13.8153 15.9667 13.3805 14.7896 13.3805H5.91293C4.73581 13.3805 3.60691 13.8153 2.77456 14.5892C1.94222 15.3631 1.47461 16.4128 1.47461 17.5073V19.5703" stroke="#7D7D7D" stroke-width="2" stroke-linecap="round" stroke-linejoin="round"/>
<path d="M14.7897 5.12683C14.7897 5.94304 14.5294 6.74092 14.0417 7.41958C13.554 8.09823 12.8609 8.62718 12.0499 8.93953C11.2389 9.25188 10.3465 9.33361 9.48553 9.17437C8.62458 9.01514 7.83375 8.62209 7.21304 8.04494C6.59233 7.4678 6.16962 6.73247 5.99837 5.93194C5.82712 5.13141 5.91501 4.30164 6.25093 3.54756C6.58686 2.79348 7.15573 2.14896 7.88561 1.6955C8.61549 1.24203 9.47359 1 10.3514 1C11.5285 1 12.6574 1.43479 13.4898 2.20872C14.3221 2.98265 14.7897 4.03233 14.7897 5.12683Z" fill="#7D7D7D" stroke="#7D7D7D" stroke-width="2" stroke-linecap="round" stroke-linejoin="round"/>
</svg>
