<svg width="88" height="88" viewBox="0 0 88 88" fill="none" xmlns="http://www.w3.org/2000/svg">
<rect width="88" height="88" rx="8" fill="#F19E07"/>
<path d="M45 32C40.0294 32 36 36.0294 36 41C36 43.1292 36.9382 45.0016 37.9766 46.625L44.388 55.6835C44.5286 55.8822 44.757 56 45 56C45.243 56 45.4714 55.8822 45.612 55.6835L52.0234 46.625C53.0156 45.2893 54 43.1292 54 41C54 36.0294 49.9706 32 45 32ZM51.0326 46.625H51.0289L45 54.875L38.9711 46.625H38.9674C38.0509 45.3009 36.75 43.1746 36.75 41C36.75 36.4438 40.4438 32.75 45 32.75C49.5562 32.75 53.25 36.4438 53.25 41C53.25 43.1746 51.8554 45.4179 51.0326 46.625Z" fill="#231F20"/>
<path d="M45 37.25C42.9289 37.25 41.25 38.9293 41.25 41C41.25 43.0707 42.9289 44.75 45 44.75C47.0711 44.75 48.75 43.0707 48.75 41C48.75 38.9293 47.0711 37.25 45 37.25ZM45 44C43.3432 44 42 42.6568 42 41C42 39.3432 43.3432 38 45 38C46.6568 38 48 39.3432 48 41C48 42.6568 46.6568 44 45 44Z" fill="#231F20"/>
<path d="M45 35.75C42.1005 35.75 39.75 38.1005 39.75 41C39.75 43.8995 42.1005 46.25 45 46.25C47.8995 46.25 50.25 43.8995 50.25 41C50.25 38.1005 47.8995 35.75 45 35.75ZM45 45.5C42.5149 45.5 40.5 43.4851 40.5 41C40.5 38.5149 42.5149 36.5 45 36.5C47.4851 36.5 49.5 38.5149 49.5 41C49.5 43.4851 47.4851 45.5 45 45.5Z" fill="#231F20"/>
</svg>
