<svg width="88" height="88" viewBox="0 0 88 88" fill="none" xmlns="http://www.w3.org/2000/svg">
<rect width="88" height="88" rx="8" fill="#F19E07"/>
<path d="M30.6812 33.7143L40.949 41.6211L40.9525 41.624C42.0925 42.4765 42.663 42.903 43.2878 43.0678C43.8399 43.2135 44.4204 43.2135 44.9727 43.0678C45.5979 42.9029 46.17 42.4751 47.3122 41.6211C47.3122 41.6211 53.8981 36.4673 57.5797 33.7143M29 50.5146V37.4861C29 35.5659 29 34.6051 29.3665 33.8717C29.6888 33.2265 30.2028 32.7024 30.8355 32.3737C31.5547 32 32.497 32 34.38 32H53.8815C55.7646 32 56.7048 32 57.424 32.3737C58.0567 32.7024 58.5724 33.2265 58.8947 33.8717C59.2609 34.6043 59.2609 35.564 59.2609 37.4804V50.5205C59.2609 52.4369 59.2609 53.3951 58.8947 54.1278C58.5724 54.7729 58.0567 55.298 57.424 55.6266C56.7055 56 55.7657 56 53.8864 56H34.3745C32.4951 56 31.554 56 30.8355 55.6266C30.2028 55.298 29.6888 54.7729 29.3665 54.1278C29 53.3945 29 52.4348 29 50.5146Z" stroke="black" stroke-linecap="round" stroke-linejoin="round"/>
</svg>
