<svg width="88" height="88" viewBox="0 0 88 88" fill="none" xmlns="http://www.w3.org/2000/svg">
<rect width="88" height="88" rx="8" fill="#F19E07"/>
<path d="M33.5153 42.169L33.5153 42.1691C35.3544 46.0809 38.5179 49.776 41.8874 52.1593C44.1896 53.7875 47.1866 55.2369 49.8962 55.4819C50.8343 55.5666 51.9857 55.3537 52.9857 54.8537C53.984 54.3546 54.7741 53.6001 55.0913 52.6419C55.0915 52.6411 55.0918 52.6404 55.092 52.6396C55.0923 52.6387 55.0926 52.6378 55.0929 52.6369L55.0929 52.6368C55.093 52.6368 55.093 52.6367 55.093 52.6367L33.5153 42.169ZM33.5153 42.169C32.2314 39.4386 31.9943 36.1907 33.8082 33.8263L33.5153 42.169ZM38.0888 34.5107C38.2348 34.891 38.3999 35.2796 38.5618 35.661C38.6366 35.8371 38.7107 36.0117 38.782 36.1831C39.0121 36.7366 39.2212 37.277 39.3695 37.8142L39.3696 37.8146C39.4949 38.2668 39.4685 38.565 39.393 38.786C39.3139 39.0175 39.1633 39.2187 38.9417 39.455C38.8828 39.5178 38.8173 39.5838 38.7477 39.6538C38.3305 40.0734 37.7683 40.639 37.6322 41.5485L37.6321 41.5493C37.5752 41.934 37.6527 42.3188 37.78 42.667C37.9081 43.0176 38.098 43.3619 38.3019 43.679C38.6022 44.1464 38.9657 44.6019 39.2452 44.9521C39.3386 45.0691 39.4226 45.1744 39.4917 45.2644L39.4918 45.2645C40.6974 46.8336 42.1498 48.1915 43.7942 49.2271C43.8552 49.2657 43.9204 49.3074 43.9891 49.3513C44.4088 49.6198 44.9613 49.9733 45.5281 50.2134C46.1752 50.4875 46.9937 50.6815 47.725 50.2811L47.7251 50.281C48.2258 50.0067 48.5713 49.5994 48.8385 49.2058C48.9721 49.009 49.0917 48.8071 49.2005 48.622C49.2087 48.608 49.2168 48.5942 49.2249 48.5805C49.3266 48.4073 49.418 48.2516 49.5126 48.1081C49.721 47.7923 49.8948 47.617 50.081 47.5379C50.2465 47.4676 50.5132 47.4364 50.9966 47.6337L50.997 47.6338C51.8406 47.9773 52.656 48.4305 53.4902 48.8943C53.7735 49.0517 54.0589 49.2103 54.3483 49.3663L54.3487 49.3665C55.1437 49.7941 55.4013 50.1619 55.4744 50.5526C55.56 51.0103 55.4259 51.6256 55.0934 52.6356L33.8083 33.8262C34.1469 33.3852 34.4799 33.0724 34.8434 32.8617C35.203 32.6532 35.6172 32.5303 36.1402 32.5041C36.5053 32.4864 36.7545 32.5274 36.933 32.5956C37.1047 32.6611 37.2358 32.7609 37.3534 32.9048C37.4773 33.0564 37.5887 33.26 37.7084 33.5366C37.7947 33.7364 37.8765 33.9522 37.9694 34.1973C38.007 34.2967 38.0465 34.4009 38.0888 34.5107ZM38.0888 34.5107C38.0888 34.5106 38.0888 34.5105 38.0887 34.5104L38.5555 34.3312L38.0889 34.511C38.0889 34.5109 38.0889 34.5108 38.0888 34.5107Z" stroke="black"/>
</svg>
