<svg width="19" height="19" viewBox="0 0 19 19" fill="none" xmlns="http://www.w3.org/2000/svg">
<path d="M7.33656 14.7849C7.61453 14.7849 7.88111 14.6876 8.07766 14.5143C8.27421 14.341 8.38464 14.1059 8.38464 13.8609V8.31657C8.38464 8.0715 8.27421 7.83646 8.07766 7.66317C7.88111 7.48988 7.61453 7.39252 7.33656 7.39252C7.05859 7.39252 6.79201 7.48988 6.59545 7.66317C6.3989 7.83646 6.28848 8.0715 6.28848 8.31657V13.8609C6.28848 14.1059 6.3989 14.341 6.59545 14.5143C6.79201 14.6876 7.05859 14.7849 7.33656 14.7849ZM17.8174 3.69632H13.625V2.77227C13.625 2.03705 13.2938 1.33195 12.7041 0.812066C12.1144 0.292187 11.3147 0.00012207 10.4808 0.00012207H8.38464C7.55073 0.00012207 6.75098 0.292187 6.16132 0.812066C5.57166 1.33195 5.2404 2.03705 5.2404 2.77227V3.69632H1.04808C0.770112 3.69632 0.503528 3.79368 0.306975 3.96697C0.110422 4.14026 0 4.3753 0 4.62037C0 4.86545 0.110422 5.10048 0.306975 5.27378C0.503528 5.44707 0.770112 5.54442 1.04808 5.54442H2.09616V15.709C2.09616 16.4442 2.42743 17.1493 3.01709 17.6692C3.60674 18.1891 4.40649 18.4811 5.2404 18.4811H13.625C14.4589 18.4811 15.2587 18.1891 15.8483 17.6692C16.438 17.1493 16.7693 16.4442 16.7693 15.709V5.54442H17.8174C18.0953 5.54442 18.3619 5.44707 18.5585 5.27378C18.755 5.10048 18.8654 4.86545 18.8654 4.62037C18.8654 4.3753 18.755 4.14026 18.5585 3.96697C18.3619 3.79368 18.0953 3.69632 17.8174 3.69632ZM7.33656 2.77227C7.33656 2.5272 7.44698 2.29216 7.64353 2.11887C7.84009 1.94558 8.10667 1.84822 8.38464 1.84822H10.4808C10.7588 1.84822 11.0253 1.94558 11.2219 2.11887C11.4185 2.29216 11.5289 2.5272 11.5289 2.77227V3.69632H7.33656V2.77227ZM14.6731 15.709C14.6731 15.954 14.5627 16.1891 14.3661 16.3624C14.1696 16.5357 13.903 16.633 13.625 16.633H5.2404C4.96243 16.633 4.69585 16.5357 4.49929 16.3624C4.30274 16.1891 4.19232 15.954 4.19232 15.709V5.54442H14.6731V15.709ZM11.5289 14.7849C11.8068 14.7849 12.0734 14.6876 12.27 14.5143C12.4665 14.341 12.577 14.1059 12.577 13.8609V8.31657C12.577 8.0715 12.4665 7.83646 12.27 7.66317C12.0734 7.48988 11.8068 7.39252 11.5289 7.39252C11.2509 7.39252 10.9843 7.48988 10.7878 7.66317C10.5912 7.83646 10.4808 8.0715 10.4808 8.31657V13.8609C10.4808 14.1059 10.5912 14.341 10.7878 14.5143C10.9843 14.6876 11.2509 14.7849 11.5289 14.7849Z" fill="#EF3636"/>
</svg>
