<svg width="21" height="19" viewBox="0 0 21 19" fill="none" xmlns="http://www.w3.org/2000/svg">
<path d="M16.1689 17.249H1.34741V3.69753H10.2538L11.6012 2.46558H1.34741C0.990051 2.46558 0.647333 2.59537 0.394646 2.82641C0.141958 3.05744 0 3.37079 0 3.69753V17.249C0 17.5757 0.141958 17.8891 0.394646 18.1201C0.647333 18.3512 0.990051 18.481 1.34741 18.481H16.1689C16.5262 18.481 16.8689 18.3512 17.1216 18.1201C17.3743 17.8891 17.5163 17.5757 17.5163 17.249V8.00936L16.1689 9.24131V17.249Z" fill="#1490D2"/>
<path d="M19.8944 2.36739L17.624 0.291552C17.5232 0.199174 17.4035 0.125881 17.2717 0.0758724C17.1399 0.0258637 16.9987 0.00012207 16.856 0.00012207C16.7133 0.00012207 16.572 0.0258637 16.4402 0.0758724C16.3084 0.125881 16.1887 0.199174 16.0879 0.291552L6.85148 8.78586L6.10367 11.7487C6.07182 11.8923 6.07517 12.0406 6.11348 12.1829C6.1518 12.3252 6.22413 12.458 6.32527 12.5717C6.42641 12.6853 6.55386 12.7771 6.69843 12.8404C6.843 12.9036 7.00111 12.9368 7.16139 12.9375C7.24423 12.9459 7.32782 12.9459 7.41066 12.9375L10.6781 12.2784L19.8944 3.77182C19.9954 3.67969 20.0756 3.57025 20.1303 3.44975C20.185 3.32925 20.2131 3.20007 20.2131 3.0696C20.2131 2.93914 20.185 2.80996 20.1303 2.68946C20.0756 2.56896 19.9954 2.45952 19.8944 2.36739ZM9.97746 11.1389L7.51171 11.6378L8.08436 9.40184L15.037 3.00185L16.9368 4.7389L9.97746 11.1389ZM17.6981 4.04285L15.7983 2.30579L16.8425 1.33255L18.7558 3.08192L17.6981 4.04285Z" fill="#1490D2"/>
</svg>
